<?xml version="1.0" encoding="UTF-8" standalone="no"?>
<!-- Created with Inkscape (http://www.inkscape.org/) -->

<svg
   width="512"
   height="512"
   viewBox="0 0 512 512"
   version="1.1"
   id="svg1"
   xml:space="preserve"
   inkscape:version="1.3.1 (9b9bdc1480, 2023-11-25, custom)"
   sodipodi:docname="doctor"
   xmlns:inkscape="http://www.inkscape.org/namespaces/inkscape"
   xmlns:sodipodi="http://sodipodi.sourceforge.net/DTD/sodipodi-0.dtd"
   xmlns="http://www.w3.org/2000/svg"
   xmlns:svg="http://www.w3.org/2000/svg"><sodipodi:namedview
     id="namedview1"
     pagecolor="#ffffff"
     bordercolor="#000000"
     borderopacity="0.25"
     inkscape:showpageshadow="2"
     inkscape:pageopacity="0.0"
     inkscape:pagecheckerboard="0"
     inkscape:deskcolor="#d1d1d1"
     inkscape:document-units="px"
     inkscape:zoom="0.66153154"
     inkscape:cx="-93.721911"
     inkscape:cy="188.95547"
     inkscape:window-width="1280"
     inkscape:window-height="960"
     inkscape:window-x="0"
     inkscape:window-y="27"
     inkscape:window-maximized="1"
     inkscape:current-layer="layer1" /><defs
     id="defs1"><filter
       inkscape:collect="always"
       style="color-interpolation-filters:sRGB"
       id="filter9"
       x="-0.0071509885"
       y="-0.020468134"
       width="1.014302"
       height="1.0409363"><feGaussianBlur
         inkscape:collect="always"
         stdDeviation="1.0671294"
         id="feGaussianBlur9" /></filter></defs><g
     inkscape:label="Layer 1"
     inkscape:groupmode="layer"
     id="layer1"><path
       d="m 436.6075,259.28297 a 35.061605,35.018398 0 1 0 0,-70.03679 35.061605,35.018398 0 1 0 0,70.03679 z m -26.29621,15.10168 c -20.26999,5.93672 -35.06161,24.64968 -35.06161,46.80976 0,4.48673 3.64312,8.12536 8.13539,8.12536 h 106.44484 c 4.49227,0 8.13539,-3.63863 8.13539,-8.12536 0,-22.16008 -14.79162,-40.87304 -35.0616,-46.80976 v 13.89793 c 7.56015,1.94243 13.1481,8.80932 13.1481,16.96204 v 10.94325 c 0,2.40751 -1.97222,4.37731 -4.3827,4.37731 h -4.38271 c -2.41048,0 -4.38269,-1.9698 -4.38269,-4.37731 0,-2.40751 1.97221,-4.3773 4.38269,-4.3773 v -6.56595 c 0,-4.84239 -3.91703,-8.7546 -8.7654,-8.7546 -4.84835,0 -8.7654,3.91221 -8.7654,8.7546 v 6.56595 c 2.41049,0 4.3827,1.96979 4.3827,4.3773 0,2.40751 -1.97221,4.37731 -4.3827,4.37731 h -4.3827 c -2.41049,0 -4.3827,-1.9698 -4.3827,-4.37731 v -10.94325 c 0,-8.15272 5.58794,-15.01961 13.1481,-16.96204 V 272.6611 c -1.6435,-0.16415 -3.31442,-0.24623 -5.01271,-0.24623 H 424.0894 c -1.69829,0 -3.3692,0.0821 -5.01271,0.24623 v 17.89221 c 6.32752,1.8877 10.95675,7.74234 10.95675,14.69131 0,8.45366 -6.87536,15.32056 -15.33945,15.32056 -8.46409,0 -15.33945,-6.8669 -15.33945,-15.32056 0,-6.94897 4.62922,-12.80361 10.95675,-14.69131 z m 4.3827,37.42592 a 6.574051,6.5659495 0 1 0 0,-13.13189 6.574051,6.5659495 0 1 0 0,13.13189 z"
       id="path8"
       style="stroke-width:0.27375;fill:none;fill-opacity:0.60000253" /><rect
       style="fill:#eca000;fill-opacity:0.75294101;stroke-width:21.0957;paint-order:fill markers stroke"
       id="rect2"
       width="499.36911"
       height="209.95541"
       x="6.6360784"
       y="157.38438"
       ry="23.377207" /><text
       xml:space="preserve"
       style="font-weight:bold;font-size:53.8379px;line-height:81.3928px;font-family:'DejaVu Sans';-inkscape-font-specification:'DejaVu Sans, Bold';text-align:center;text-anchor:middle;fill:#a06400;fill-opacity:0.752941;stroke-width:10.7845;paint-order:fill markers stroke"
       x="21.869446"
       y="225.34334"
       id="text2"
       transform="scale(0.94067244,1.0630693)"><tspan
         sodipodi:role="line"
         id="tspan2"
         x="21.869446"
         y="225.34334"
         style="font-style:normal;font-variant:normal;font-weight:bold;font-stretch:normal;font-size:55.8379px;line-height:81.3928px;font-family:'DejaVu Sans';-inkscape-font-specification:'DejaVu Sans, Bold';font-variant-ligatures:normal;font-variant-caps:normal;font-variant-numeric:normal;font-variant-east-asian:normal;text-align:start;text-anchor:start;fill:#ffffff;stroke-width:10.7845">Ahmed</tspan><tspan
         sodipodi:role="line"
         x="21.869446"
         y="307.25568"
         style="font-style:normal;font-variant:normal;font-weight:bold;font-stretch:normal;font-size:55.8379px;line-height:81.3928px;font-family:'DejaVu Sans';-inkscape-font-specification:'DejaVu Sans, Bold';font-variant-ligatures:normal;font-variant-caps:normal;font-variant-numeric:normal;font-variant-east-asian:normal;text-align:start;text-anchor:start;fill:#ffffff;stroke-width:10.7845"
         id="tspan3">El-Sherærɪ:</tspan></text><path
       d="m 436.6075,259.28297 a 35.061605,35.018398 0 1 0 0,-70.03679 35.061605,35.018398 0 1 0 0,70.03679 z m -26.29621,15.10168 c -20.26999,5.93672 -35.06161,24.64968 -35.06161,46.80976 0,4.48673 3.64312,8.12536 8.13539,8.12536 h 106.44484 c 4.49227,0 8.13539,-3.63863 8.13539,-8.12536 0,-22.16008 -14.79162,-40.87304 -35.0616,-46.80976 v 13.89793 c 7.56015,1.94243 13.1481,8.80932 13.1481,16.96204 v 10.94325 c 0,2.40751 -1.97222,4.37731 -4.3827,4.37731 h -4.38271 c -2.41048,0 -4.38269,-1.9698 -4.38269,-4.37731 0,-2.40751 1.97221,-4.3773 4.38269,-4.3773 v -6.56595 c 0,-4.84239 -3.91703,-8.7546 -8.7654,-8.7546 -4.84835,0 -8.7654,3.91221 -8.7654,8.7546 v 6.56595 c 2.41049,0 4.3827,1.96979 4.3827,4.3773 0,2.40751 -1.97221,4.37731 -4.3827,4.37731 h -4.3827 c -2.41049,0 -4.3827,-1.9698 -4.3827,-4.37731 v -10.94325 c 0,-8.15272 5.58794,-15.01961 13.1481,-16.96204 V 272.6611 c -1.6435,-0.16415 -3.31442,-0.24623 -5.01271,-0.24623 H 424.0894 c -1.69829,0 -3.3692,0.0821 -5.01271,0.24623 v 17.89221 c 6.32752,1.8877 10.95675,7.74234 10.95675,14.69131 0,8.45366 -6.87536,15.32056 -15.33945,15.32056 -8.46409,0 -15.33945,-6.8669 -15.33945,-15.32056 0,-6.94897 4.62922,-12.80361 10.95675,-14.69131 z m 4.3827,37.42592 a 6.574051,6.5659495 0 1 0 0,-13.13189 6.574051,6.5659495 0 1 0 0,13.13189 z"
       id="path1"
       style="stroke-width:0.27375;fill:#ffffff" /><text
       xml:space="preserve"
       style="font-weight:bold;font-size:53.8379px;line-height:81.3928px;font-family:'DejaVu Sans';-inkscape-font-specification:'DejaVu Sans, Bold';text-align:center;text-anchor:middle;mix-blend-mode:normal;fill:#a06400;fill-opacity:0.752941;stroke-width:10.785;stroke-dasharray:none;paint-order:fill markers stroke;filter:url(#filter9)"
       x="21.869446"
       y="225.34334"
       id="text4"
       transform="scale(0.94067244,1.0630693)"><tspan
         sodipodi:role="line"
         id="tspan1"
         x="21.869446"
         y="225.34334"
         style="font-style:normal;font-variant:normal;font-weight:bold;font-stretch:normal;font-size:55.8379px;line-height:81.3928px;font-family:'DejaVu Sans';-inkscape-font-specification:'DejaVu Sans, Bold';font-variant-ligatures:normal;font-variant-caps:normal;font-variant-numeric:normal;font-variant-east-asian:normal;text-align:start;text-anchor:start;fill:#ffffff;stroke-width:10.785;stroke-dasharray:none">Ahmed</tspan><tspan
         sodipodi:role="line"
         x="21.869446"
         y="307.25568"
         style="font-style:normal;font-variant:normal;font-weight:bold;font-stretch:normal;font-size:55.8379px;line-height:81.3928px;font-family:'DejaVu Sans';-inkscape-font-specification:'DejaVu Sans, Bold';font-variant-ligatures:normal;font-variant-caps:normal;font-variant-numeric:normal;font-variant-east-asian:normal;text-align:start;text-anchor:start;fill:#ffffff;stroke-width:10.785;stroke-dasharray:none"
         id="tspan4">El-Sher<tspan
   style="opacity:0;fill:#ffffff;fill-opacity:0.25478;stroke-width:10.785;stroke-dasharray:none"
   id="tspan8">æ</tspan>rɪ:</tspan></text><path
       d="m 436.6075,259.28297 a 35.061605,35.018398 0 1 0 0,-70.03679 35.061605,35.018398 0 1 0 0,70.03679 z m -26.29621,15.10168 c -20.26999,5.93672 -35.06161,24.64968 -35.06161,46.80976 0,4.48673 3.64312,8.12536 8.13539,8.12536 h 106.44484 c 4.49227,0 8.13539,-3.63863 8.13539,-8.12536 0,-22.16008 -14.79162,-40.87304 -35.0616,-46.80976 v 13.89793 c 7.56015,1.94243 13.1481,8.80932 13.1481,16.96204 v 10.94325 c 0,2.40751 -1.97222,4.37731 -4.3827,4.37731 h -4.38271 c -2.41048,0 -4.38269,-1.9698 -4.38269,-4.37731 0,-2.40751 1.97221,-4.3773 4.38269,-4.3773 v -6.56595 c 0,-4.84239 -3.91703,-8.7546 -8.7654,-8.7546 -4.84835,0 -8.7654,3.91221 -8.7654,8.7546 v 6.56595 c 2.41049,0 4.3827,1.96979 4.3827,4.3773 0,2.40751 -1.97221,4.37731 -4.3827,4.37731 h -4.3827 c -2.41049,0 -4.3827,-1.9698 -4.3827,-4.37731 v -10.94325 c 0,-8.15272 5.58794,-15.01961 13.1481,-16.96204 V 272.6611 c -1.6435,-0.16415 -3.31442,-0.24623 -5.01271,-0.24623 H 424.0894 c -1.69829,0 -3.3692,0.0821 -5.01271,0.24623 v 17.89221 c 6.32752,1.8877 10.95675,7.74234 10.95675,14.69131 0,8.45366 -6.87536,15.32056 -15.33945,15.32056 -8.46409,0 -15.33945,-6.8669 -15.33945,-15.32056 0,-6.94897 4.62922,-12.80361 10.95675,-14.69131 z m 4.3827,37.42592 a 6.574051,6.5659495 0 1 0 0,-13.13189 6.574051,6.5659495 0 1 0 0,13.13189 z"
       id="path4"
       style="stroke-width:0.27375;fill:#ffffff" /><path
       d="m 436.6075,259.28297 a 35.061605,35.018398 0 1 0 0,-70.03679 35.061605,35.018398 0 1 0 0,70.03679 z m -26.29621,15.10168 c -20.26999,5.93672 -35.06161,24.64968 -35.06161,46.80976 0,4.48673 3.64312,8.12536 8.13539,8.12536 h 106.44484 c 4.49227,0 8.13539,-3.63863 8.13539,-8.12536 0,-22.16008 -14.79162,-40.87304 -35.0616,-46.80976 v 13.89793 c 7.56015,1.94243 13.1481,8.80932 13.1481,16.96204 v 10.94325 c 0,2.40751 -1.97222,4.37731 -4.3827,4.37731 h -4.38271 c -2.41048,0 -4.38269,-1.9698 -4.38269,-4.37731 0,-2.40751 1.97221,-4.3773 4.38269,-4.3773 v -6.56595 c 0,-4.84239 -3.91703,-8.7546 -8.7654,-8.7546 -4.84835,0 -8.7654,3.91221 -8.7654,8.7546 v 6.56595 c 2.41049,0 4.3827,1.96979 4.3827,4.3773 0,2.40751 -1.97221,4.37731 -4.3827,4.37731 h -4.3827 c -2.41049,0 -4.3827,-1.9698 -4.3827,-4.37731 v -10.94325 c 0,-8.15272 5.58794,-15.01961 13.1481,-16.96204 V 272.6611 c -1.6435,-0.16415 -3.31442,-0.24623 -5.01271,-0.24623 H 424.0894 c -1.69829,0 -3.3692,0.0821 -5.01271,0.24623 v 17.89221 c 6.32752,1.8877 10.95675,7.74234 10.95675,14.69131 0,8.45366 -6.87536,15.32056 -15.33945,15.32056 -8.46409,0 -15.33945,-6.8669 -15.33945,-15.32056 0,-6.94897 4.62922,-12.80361 10.95675,-14.69131 z m 4.3827,37.42592 a 6.574051,6.5659495 0 1 0 0,-13.13189 6.574051,6.5659495 0 1 0 0,13.13189 z"
       id="path5"
       style="stroke-width:0.27375;fill:#ffffff" /><path
       d="m 436.6075,259.28297 a 35.061605,35.018398 0 1 0 0,-70.03679 35.061605,35.018398 0 1 0 0,70.03679 z m -26.29621,15.10168 c -20.26999,5.93672 -35.06161,24.64968 -35.06161,46.80976 0,4.48673 3.64312,8.12536 8.13539,8.12536 h 106.44484 c 4.49227,0 8.13539,-3.63863 8.13539,-8.12536 0,-22.16008 -14.79162,-40.87304 -35.0616,-46.80976 v 13.89793 c 7.56015,1.94243 13.1481,8.80932 13.1481,16.96204 v 10.94325 c 0,2.40751 -1.97222,4.37731 -4.3827,4.37731 h -4.38271 c -2.41048,0 -4.38269,-1.9698 -4.38269,-4.37731 0,-2.40751 1.97221,-4.3773 4.38269,-4.3773 v -6.56595 c 0,-4.84239 -3.91703,-8.7546 -8.7654,-8.7546 -4.84835,0 -8.7654,3.91221 -8.7654,8.7546 v 6.56595 c 2.41049,0 4.3827,1.96979 4.3827,4.3773 0,2.40751 -1.97221,4.37731 -4.3827,4.37731 h -4.3827 c -2.41049,0 -4.3827,-1.9698 -4.3827,-4.37731 v -10.94325 c 0,-8.15272 5.58794,-15.01961 13.1481,-16.96204 V 272.6611 c -1.6435,-0.16415 -3.31442,-0.24623 -5.01271,-0.24623 H 424.0894 c -1.69829,0 -3.3692,0.0821 -5.01271,0.24623 v 17.89221 c 6.32752,1.8877 10.95675,7.74234 10.95675,14.69131 0,8.45366 -6.87536,15.32056 -15.33945,15.32056 -8.46409,0 -15.33945,-6.8669 -15.33945,-15.32056 0,-6.94897 4.62922,-12.80361 10.95675,-14.69131 z m 4.3827,37.42592 a 6.574051,6.5659495 0 1 0 0,-13.13189 6.574051,6.5659495 0 1 0 0,13.13189 z"
       id="path6"
       style="stroke-width:0.27375;fill:#ffffff" /><path
       d="m 436.6075,259.28297 a 35.061605,35.018398 0 1 0 0,-70.03679 35.061605,35.018398 0 1 0 0,70.03679 z m -26.29621,15.10168 c -20.26999,5.93672 -35.06161,24.64968 -35.06161,46.80976 0,4.48673 3.64312,8.12536 8.13539,8.12536 h 106.44484 c 4.49227,0 8.13539,-3.63863 8.13539,-8.12536 0,-22.16008 -14.79162,-40.87304 -35.0616,-46.80976 v 13.89793 c 7.56015,1.94243 13.1481,8.80932 13.1481,16.96204 v 10.94325 c 0,2.40751 -1.97222,4.37731 -4.3827,4.37731 h -4.38271 c -2.41048,0 -4.38269,-1.9698 -4.38269,-4.37731 0,-2.40751 1.97221,-4.3773 4.38269,-4.3773 v -6.56595 c 0,-4.84239 -3.91703,-8.7546 -8.7654,-8.7546 -4.84835,0 -8.7654,3.91221 -8.7654,8.7546 v 6.56595 c 2.41049,0 4.3827,1.96979 4.3827,4.3773 0,2.40751 -1.97221,4.37731 -4.3827,4.37731 h -4.3827 c -2.41049,0 -4.3827,-1.9698 -4.3827,-4.37731 v -10.94325 c 0,-8.15272 5.58794,-15.01961 13.1481,-16.96204 V 272.6611 c -1.6435,-0.16415 -3.31442,-0.24623 -5.01271,-0.24623 H 424.0894 c -1.69829,0 -3.3692,0.0821 -5.01271,0.24623 v 17.89221 c 6.32752,1.8877 10.95675,7.74234 10.95675,14.69131 0,8.45366 -6.87536,15.32056 -15.33945,15.32056 -8.46409,0 -15.33945,-6.8669 -15.33945,-15.32056 0,-6.94897 4.62922,-12.80361 10.95675,-14.69131 z m 4.3827,37.42592 a 6.574051,6.5659495 0 1 0 0,-13.13189 6.574051,6.5659495 0 1 0 0,13.13189 z"
       id="path7"
       style="stroke-width:0.27375;fill:#ffffff" /></g></svg>
